<?xml version="1.0" encoding="UTF-8"?>
<svg width="245px" height="46px" viewBox="0 0 245 46" version="1.1" xmlns="http://www.w3.org/2000/svg" xmlns:xlink="http://www.w3.org/1999/xlink">
    <!-- Generator: Sketch 50.2 (55047) - http://www.bohemiancoding.com/sketch -->
    <title>Group 2</title>
    <desc>Created with Sketch.</desc>
    <defs>
        <polygon id="path-1" points="0.00019140625 0.663222656 38.9513633 0.663222656 38.9513633 45.743127 0.00019140625 45.743127"></polygon>
    </defs>
    <g id="Symbols" stroke="none" stroke-width="1" fill="none" fill-rule="evenodd">
        <g id="Navbar-startsida" transform="translate(-90.000000, -14.000000)">
            <g id="Group-25">
                <g id="Group-12">
                    <g id="Group-13">
                        <g id="Group-2" transform="translate(90.000000, 14.000000)">
                            <g id="Group-3" transform="translate(0.000000, 0.293809)">
                                <g id="Group">
                                    <mask id="mask-2" fill="white">
                                        <use xlink:href="#path-1"></use>
                                    </mask>
                                    <g id="Clip-2"></g>
                                    <path d="M0.00019140625,0.663126953 L0.00019140625,26.5709199 L0.00401953125,26.5709199 C0.00401953125,37.2475605 8.82114844,45.743127 19.4757773,45.743127 C30.1294492,45.743127 38.9475352,37.3021113 38.9475352,26.5709199 L38.9513633,26.5709199 L38.9513633,0.663126953" id="Fill-1" fill="#FFD100" mask="url(#mask-2)"></path>
                                    <path d="M30.7120898,9.3007168 C30.7120898,10.8099551 29.2095508,11.1659707 27.1452344,11.1659707 C25.080918,11.1659707 23.6635547,10.8099551 23.6635547,9.3007168 C23.6635547,7.79147852 25.080918,6.05542383 27.1452344,6.05542383 C29.2095508,6.05542383 30.7120898,7.79147852 30.7120898,9.3007168" id="Fill-4" fill="#0079C0" mask="url(#mask-2)"></path>
                                    <path d="M28.988668,12.8862344 C28.8709531,12.8249844 28.5264219,12.6670742 28.5580039,11.9397305 C28.7073008,11.6956875 28.8240586,11.3980508 28.8240586,11.1635781 L28.8240586,7.81779687 C28.8240586,7.13543359 28.1550937,6.58896875 27.3645859,6.58896875 L27.030582,6.58896875 C26.2391172,6.58896875 25.5701523,7.13543359 25.5701523,7.81779687 L25.5701523,11.1635781 C25.5701523,11.4841836 25.7338047,11.8622109 25.9931602,12.1636758 C25.9156406,12.4794961 25.8429062,12.7110977 25.5223008,12.8469961 C25.5022031,12.8556094 25.4524375,12.8670937 25.3988437,12.8785781 C23.8235703,12.1751602 22.7239414,10.5960586 22.7239414,8.76238672 C22.7239414,6.27889062 24.7451914,4.22605859 27.2296445,4.22605859 C29.7140977,4.22605859 31.7363047,6.27889062 31.7363047,8.76238672 C31.7363047,10.6190273 30.5945664,12.1962148 28.988668,12.8862344 M27.2296445,3.27955469 C24.1987266,3.27955469 21.7190586,5.73146875 21.7190586,8.76238672 C21.7190586,11.3597695 23.5422031,13.5389297 25.9644492,14.1121914 C26.5597227,14.7648867 27.5349375,15.2166055 28.5943711,14.0882656 C30.9678086,13.4805508 32.7411875,11.3234023 32.7411875,8.76238672 C32.7411875,5.73146875 30.2605625,3.27955469 27.2296445,3.27955469" id="Fill-6" fill="#FFFFFF" mask="url(#mask-2)"></path>
                                    <path d="M23.0904844,39.0293613 C23.0904844,38.7690488 23.2110703,38.5843418 23.4426719,38.3479551 C23.6742734,38.1115684 23.9556406,37.8129746 23.9556406,37.8129746 L26.1893516,37.8416855 C26.1893516,37.8416855 25.5825937,38.5192637 25.2074375,39.020748 C24.8332383,39.5222324 24.518375,39.9634238 23.9278867,39.9634238 C23.3383555,39.9634238 23.0904844,39.324127 23.0904844,39.0293613" id="Fill-8" fill="#FFFFFF" mask="url(#mask-2)"></path>
                                    <path d="M28.126957,37.8144102 C28.126957,37.8144102 29.0801602,39.0097422 29.4313906,39.4260508 C29.8218594,39.8892539 30.0946133,39.9658164 30.3845937,39.9658164 C30.6573477,39.9658164 31.2210391,39.7035898 31.2210391,39.0528086 C31.2210391,38.729332 31.126293,38.6336289 30.8860781,38.3781016 C30.6468203,38.1216172 30.2678359,37.6698984 30.2678359,37.6698984" id="Fill-10" fill="#FFFFFF" mask="url(#mask-2)"></path>
                                    <path d="M28.988668,12.8862344 C28.7254844,13.3465664 28.102457,13.6221914 27.2382578,13.6221914 C26.3740586,13.6221914 25.6620273,13.3389102 25.3988438,12.8785781 C23.4876523,12.9943789 22.2875352,14.6423867 22.2875352,17.5115664 L22.2865781,23.7131289 C21.9104648,24.5821133 21.1534531,24.5696719 20.5399961,24.9515273 C21.1649375,25.2855312 21.4970273,26.4751211 20.6691953,27.0512539 C21.2051328,26.9373672 21.7764805,26.7526602 22.2865781,26.6923672 L22.2865781,33.4959023 L32.1832383,30.3415273 L32.1889805,17.5115664 C32.1889805,14.6423867 30.8998594,13.0010781 28.988668,12.8862344 M22.2865781,37.9690664 L31.6300742,37.9690664 L31.6300742,31.0439883 L22.2865781,34.0327969" id="Fill-12" fill="#EE3E42" mask="url(#mask-2)"></path>
                                    <path d="M27.1891621,12.1591777 C26.2780684,12.0634746 25.9201387,11.3380449 25.592834,11.0528496 L28.809416,11.0528496 C28.6132246,11.2586113 28.1720332,12.1141973 27.1891621,12.1591777 M28.839084,11.0528496 C28.8362129,11.0490215 28.8333418,11.0461504 28.8314277,11.0432793 L28.8314277,11.0298809 C28.8295137,11.0317949 28.8275996,11.034666 28.8256855,11.0365801 C28.5261348,10.6700371 27.8399434,10.4250371 27.306877,10.3446465 L27.306877,8.92536914 L28.8142012,8.92536914 C28.6505488,8.82775195 28.3117598,8.54064258 27.9720137,8.54064258 C27.583459,8.54064258 27.1882051,8.92536914 27.1882051,8.92536914 L27.185334,8.92536914 C27.0082832,8.82775195 26.7527559,8.55404102 26.327834,8.55404102 C25.991916,8.55404102 25.5813496,8.92536914 25.5813496,8.92536914 L27.0542207,8.92536914 L27.0542207,10.3446465 C26.604416,10.4671465 25.7995527,10.7102324 25.5717793,11.033709 C25.5708223,11.032752 25.5689082,11.0317949 25.5689082,11.0298809 L25.5689082,11.0384941 C25.564123,11.0432793 25.5602949,11.0480645 25.5574238,11.0528496 L25.5689082,11.0528496 C25.561252,12.0960137 26.0474238,13.1008965 27.1910762,13.1430059 C28.4744551,13.0922832 28.8285566,12.1639629 28.8314277,11.0528496" id="Fill-14" fill="#0079C0" mask="url(#mask-2)"></path>
                                    <path d="M15.507543,9.3007168 C15.507543,10.8099551 14.0050039,11.1659707 11.9406875,11.1659707 C9.87637109,11.1659707 8.45900781,10.8099551 8.45900781,9.3007168 C8.45900781,7.79147852 9.87637109,6.05542383 11.9406875,6.05542383 C14.0050039,6.05542383 15.507543,7.79147852 15.507543,9.3007168" id="Fill-16" fill="#0079C0" mask="url(#mask-2)"></path>
                                    <path d="M13.7850781,12.8862344 C13.6673633,12.8249844 13.322832,12.6670742 13.3544141,11.9397305 C13.5037109,11.6956875 13.6204687,11.3980508 13.6204687,11.1635781 L13.6204687,7.81779687 C13.6204687,7.13543359 12.9515039,6.58896875 12.1609961,6.58896875 L11.8269922,6.58896875 C11.0355273,6.58896875 10.3665625,7.13543359 10.3665625,7.81779687 L10.3665625,11.1635781 C10.3665625,11.4841836 10.5302148,11.8622109 10.7895703,12.1636758 C10.7120508,12.4794961 10.6393164,12.7110977 10.3187109,12.8469961 C10.2986133,12.8556094 10.2488477,12.8670937 10.1952539,12.8785781 C8.61998047,12.1751602 7.52035156,10.5960586 7.52035156,8.76238672 C7.52035156,6.27889062 9.54160156,4.22605859 12.0260547,4.22605859 C14.5105078,4.22605859 16.5317578,6.27889062 16.5317578,8.76238672 C16.5317578,10.6190273 15.3909766,12.1962148 13.7850781,12.8862344 M12.0260547,3.27955469 C8.99513672,3.27955469 6.51546875,5.73146875 6.51546875,8.76238672 C6.51546875,11.3597695 8.33765625,13.5389297 10.7608594,14.1121914 C11.3561328,14.7648867 12.3313477,15.2166055 13.3907812,14.0882656 C15.7642187,13.4805508 17.5375977,11.3234023 17.5375977,8.76238672 C17.5375977,5.73146875 15.0569727,3.27955469 12.0260547,3.27955469" id="Fill-18" fill="#FFFFFF" mask="url(#mask-2)"></path>
                                    <path d="M7.8858418,39.0293613 C7.8858418,38.7690488 8.00642773,38.5843418 8.2380293,38.3479551 C8.46963086,38.1115684 8.75099805,37.8129746 8.75099805,37.8129746 L10.984709,37.8416855 C10.984709,37.8416855 10.3779512,38.5192637 10.0027949,39.020748 C9.6285957,39.5222324 9.31373242,39.9634238 8.72324414,39.9634238 C8.13371289,39.9634238 7.8858418,39.324127 7.8858418,39.0293613" id="Fill-20" fill="#FFFFFF" mask="url(#mask-2)"></path>
                                    <path d="M12.9238457,37.8144102 C12.9238457,37.8144102 13.8770488,39.0097422 14.2282793,39.4260508 C14.618748,39.8892539 14.891502,39.9658164 15.1814824,39.9658164 C15.4551934,39.9658164 16.0179277,39.7035898 16.0179277,39.0528086 C16.0179277,38.729332 15.9231816,38.6336289 15.6829668,38.3781016 C15.443709,38.1216172 15.0647246,37.6698984 15.0647246,37.6698984" id="Fill-22" fill="#FFFFFF" mask="url(#mask-2)"></path>
                                    <path d="M13.7850781,12.8862344 C13.5218945,13.3465664 12.8988672,13.6221914 12.034668,13.6221914 C11.1704687,13.6221914 10.4574805,13.3389102 10.1952539,12.8785781 C8.2840625,12.9943789 7.08394531,14.6423867 7.08394531,17.5115664 L7.08298828,19.4878359 C6.70591797,20.3568203 5.94986328,20.3443789 5.33640625,20.7262344 C5.90201172,21.1013906 6.17955078,22.2393008 5.45603516,22.8211758 C5.99292969,22.706332 6.57289062,22.5273672 7.08298828,22.4661172 L7.08298828,33.4959023 L16.9796484,30.3415273 L16.9844336,17.5115664 C16.9844336,14.6423867 15.6962695,13.0010781 13.7850781,12.8862344 M7.08298828,37.9690664 L16.4255273,37.9690664 L16.4255273,31.0439883 L7.08298828,34.0327969" id="Fill-24" fill="#EE3E42" mask="url(#mask-2)"></path>
                                    <path d="M11.984998,12.1591777 C11.0739043,12.0634746 10.7169316,11.3380449 10.389627,11.0528496 L13.605252,11.0528496 C13.4090605,11.2586113 12.9678691,12.1141973 11.984998,12.1591777 M13.6349199,11.0528496 C13.6330059,11.0490215 13.6301348,11.0461504 13.6272637,11.0432793 L13.6272637,11.0298809 C13.6253496,11.0317949 13.6234355,11.034666 13.6215215,11.0365801 C13.3219707,10.6700371 12.6357793,10.4250371 12.1017559,10.3446465 L12.1017559,8.92536914 L13.6100371,8.92536914 C13.4463848,8.82775195 13.1075957,8.54064258 12.7678496,8.54064258 C12.3792949,8.54064258 11.984041,8.92536914 11.984041,8.92536914 L11.982127,8.92536914 C11.8050762,8.82775195 11.5485918,8.55404102 11.1236699,8.55404102 C10.787752,8.55404102 10.3781426,8.92536914 10.3781426,8.92536914 L11.8510137,8.92536914 L11.8510137,10.3446465 C11.401209,10.4671465 10.5963457,10.7102324 10.3676152,11.033709 C10.3666582,11.032752 10.3657012,11.0317949 10.3647441,11.0298809 L10.3647441,11.0384941 C10.360916,11.0432793 10.3570879,11.0480645 10.3542168,11.0528496 L10.3647441,11.0528496 C10.3580449,12.0960137 10.8432598,13.1008965 11.9869121,13.1430059 C13.270291,13.0922832 13.6243926,12.1639629 13.6272637,11.0528496" id="Fill-26" fill="#0079C0" mask="url(#mask-2)"></path>
                                    <path d="M2.01455078,18.0515234 L2.75625,18.0515234 L2.75625,17.3107812 L2.01455078,17.3107812 L2.01455078,18.0515234 Z M2.01455078,15.0206055 L2.75625,15.0206055 L2.75625,14.2789062 L2.01455078,14.2789062 L2.01455078,15.0206055 Z M4.06068359,13.3879102 L4.06068359,15.0206055 L3.66064453,15.0206055 L3.66064453,13.3754687 L1.11111328,13.3754687 L1.11111328,15.925 L4.06068359,15.925 L4.06068359,16.4063867 L1.11111328,16.4063867 L1.11111328,18.9549609 L3.66064453,18.9549609 L3.66064453,17.3107812 L4.06068359,17.3107812 L4.06068359,20.7838477 L4.96507813,20.7838477 L4.96507813,13.3879102 L4.06068359,13.3879102 Z" id="Fill-28" fill="#0079C0" mask="url(#mask-2)"></path>
                                    <polyline id="Fill-30" fill="#0079C0" mask="url(#mask-2)" points="20.3464844 23.5411504 20.3464844 13.3726934 19.7196289 12.4549004 19.1367969 13.3726934 19.1367969 23.5411504 18.1816797 23.5411504 18.1816797 24.2101152 19.1367969 24.2101152 19.1367969 25.0168926 20.3062891 25.0168926 20.3062891 24.2101152 21.3417969 24.2101152 21.3417969 23.5411504"></polyline>
                                    <path d="M20.2996855,24.8071113 C20.2920293,24.8061543 20.284373,24.8042402 20.2767168,24.8013691 C19.8403105,24.7889277 19.7551348,24.7889277 19.2680059,24.8004121 C18.9148613,24.8511348 18.8957207,25.1612129 19.1455059,25.2664863 C19.0622441,25.2674434 18.9617559,25.2684004 18.8229863,25.2684004 C18.5320488,25.3143379 18.5253496,25.7067207 18.7646074,25.7842402 C18.535877,25.869416 18.5425762,26.2024629 18.7550371,26.2828535 C18.5129082,26.3823848 18.5502324,26.7824238 18.8287285,26.7977363 L18.8296855,26.7977363 C18.6401934,26.908752 18.6842168,27.2437129 18.9292168,27.2590254 C19.4010332,27.2590254 20.0652129,27.2599824 20.161873,27.2647676 C21.3907012,27.3202754 21.9582207,25.2071504 20.2996855,24.8071113" id="Fill-31" fill="#FFFFFF" mask="url(#mask-2)"></path>
                                    <path d="M19.9436699,25.307543 C20.1379473,25.4396133 20.1111504,25.7104531 19.8948613,25.7841445 C20.1446465,25.9056875 20.1264629,26.2234219 19.8766777,26.2913711 C20.0948809,26.4186562 20.0757402,26.7124648 19.8508379,26.7842422 C20.0632988,26.9057852 19.9628105,27.2101211 19.7197246,27.2589297 L19.1340215,27.2589297 L19.1340215,28.0513516 L20.3054277,28.0532656 L20.3054277,25.307543" id="Fill-32" fill="#0079C0" mask="url(#mask-2)"></path>
                                    <path d="M4.95636914,20.5818184 C4.94871289,20.5799043 4.94105664,20.5779902 4.93435742,20.5760762 C4.49699414,20.5626777 4.41181836,20.5626777 3.92468945,20.5751191 C3.57154492,20.6248848 3.5524043,20.9359199 3.80218945,21.0411934 C3.71892773,21.0411934 3.61843945,21.0421504 3.47966992,21.0431074 C3.18873242,21.0890449 3.1820332,21.4804707 3.42129102,21.5589473 C3.19256055,21.643166 3.19925977,21.9771699 3.4117207,22.0566035 C3.1695918,22.1561348 3.20691602,22.5571309 3.48541211,22.5714863 L3.48636914,22.5714863 C3.29687695,22.682502 3.34090039,23.0184199 3.58494336,23.0337324 C4.0577168,23.0337324 4.72189648,23.0337324 4.81759961,23.0385176 C6.04642773,23.0949824 6.6149043,20.9818574 4.95636914,20.5818184" id="Fill-33" fill="#FFFFFF" mask="url(#mask-2)"></path>
                                    <path d="M4.50685156,26.858125 C3.88382422,26.858125 3.37755469,26.3422852 3.37755469,25.7087305 C3.37755469,25.0751758 3.88382422,24.5593359 4.50685156,24.5593359 C5.12892188,24.5593359 5.63614844,25.0751758 5.63614844,25.7087305 C5.63614844,26.3422852 5.12892188,26.858125 4.50685156,26.858125 M6.52714453,25.2780664 L6.43048438,25.2780664 C6.26874609,24.5354102 5.69452734,23.947793 4.96335547,23.7716992 L4.96335547,21.0824414 L4.60159766,21.0824414 C4.795875,21.2145117 4.76907813,21.4853516 4.55374609,21.559043 C4.80257422,21.6805859 4.78534766,21.9983203 4.5355625,22.0662695 C4.75280859,22.1935547 4.73366797,22.4873633 4.50876563,22.5591406 C4.72122656,22.6806836 4.62073828,22.9850195 4.37765234,23.0338281 L4.05417578,23.0338281 L4.05417578,23.6185742 L4.05321875,23.6185742 L4.05321875,23.7697852 C3.32013281,23.9458789 2.74495703,24.5334961 2.58226172,25.2780664 L2.5143125,25.2780664 C2.26452734,25.2780664 2.06259375,25.480957 2.06259375,25.7307422 C2.06259375,25.9805273 2.26452734,26.1815039 2.5143125,26.1815039 L2.59278906,26.1815039 C2.76888281,26.9088477 3.33927344,27.4792383 4.06183203,27.6486328 L4.06183203,27.7003125 C4.06183203,27.9500977 4.26376563,28.1520312 4.51355078,28.1520312 C4.76333594,28.1520312 4.96622656,27.9500977 4.96622656,27.7003125 L4.96622656,27.6448047 C5.68112891,27.471582 6.24482031,26.9040625 6.41995703,26.1815039 L6.52714453,26.1815039 C6.77597266,26.1815039 6.97790625,25.9805273 6.97790625,25.7307422 C6.97790625,25.480957 6.77597266,25.2780664 6.52714453,25.2780664" id="Fill-34" fill="#0079C0" mask="url(#mask-2)"></path>
                                </g>
                            </g>
                            <g id="Group-8" transform="translate(52.000000, 0.293809)" fill="#FFFFFF">
                                <path d="M7.9013457,6.39871094 L7.84200977,6.39871094 C7.31181445,5.90775391 6.23132617,5.14117188 4.81779102,5.14117188 C3.30472461,5.14117188 2.59843555,5.82927734 2.59843555,7.06671875 C2.59843555,9.99332031 8.70620898,9.71865234 8.70620898,14.0004102 C8.70620898,16.7308203 6.7222832,17.8103516 3.99283008,17.8103516 C2.36204883,17.8103516 0.909275391,17.4371094 0.496794922,17.1433008 L0.496794922,15.2962305 L0.555173828,15.2962305 C1.16480273,15.8465234 2.38214648,16.7499609 4.18902148,16.7499609 C5.42646289,16.7499609 6.58542773,16.3173828 6.58542773,14.609082 C6.58542773,11.3877148 0.514978516,11.6824805 0.514978516,7.53853516 C0.514978516,5.39669922 2.02900195,4.12001953 4.97474414,4.12001953 C6.15284961,4.12001953 7.39029102,4.33630859 7.9013457,4.63107422" id="Fill-35"></path>
                                <polyline id="Fill-36" points="19.1375625 5.43708594 15.4252383 5.43708594 15.4252383 17.5760703 13.2250234 17.5760703 13.2250234 5.43708594 9.51269922 5.43708594 9.51269922 4.35659766 19.1375625 4.35659766"></polyline>
                                <path d="M23.0876133,10.7399961 L24.2073398,10.7399961 C25.7395469,10.7399961 27.2325156,10.2882773 27.2325156,8.04882422 C27.2325156,5.82946875 25.9950742,5.31841406 24.2657187,5.31841406 C23.598668,5.31841406 23.0876133,5.39784766 23.0876133,5.39784766 L23.0876133,10.7399961 Z M20.8883555,4.35564062 L24.0704844,4.35564062 C25.6610703,4.35564062 29.5494883,4.35564062 29.5494883,7.83253516 C29.5494883,10.0528477 27.7627109,11.1524766 26.4075547,11.4271445 L30.060543,17.5751133 L27.5856602,17.5751133 L24.2657187,11.7621055 L23.0876133,11.7621055 L23.0876133,17.5751133 L20.8883555,17.5751133 L20.8883555,4.35564062 Z" id="Fill-37"></path>
                                <path d="M37.7108594,1.86123438 C37.7108594,1.19322656 38.220957,0.721410156 38.8497266,0.721410156 C39.4976367,0.721410156 39.9694531,1.19322656 39.9694531,1.86123438 C39.9694531,2.50914453 39.4976367,3.00010156 38.8497266,3.00010156 C38.2018164,3.00010156 37.7108594,2.50914453 37.7108594,1.86123438 Z M34.1947266,12.6058242 L38.3779102,12.6058242 L36.2963672,6.811 L36.2571289,6.811 L34.1947266,12.6058242 Z M33.5066211,1.86123438 C33.5066211,1.19322656 33.9985352,0.721410156 34.6263477,0.721410156 C35.2752148,0.721410156 35.7652148,1.19322656 35.7652148,1.86123438 C35.7652148,2.50914453 35.2752148,3.00010156 34.6263477,3.00010156 C33.9784375,3.00010156 33.5066211,2.50914453 33.5066211,1.86123438 Z M38.77125,13.6853555 L33.8214844,13.6853555 L32.4462305,17.5747305 L31.0719336,17.5747305 L35.9030273,4.35525781 L37.6907617,4.35525781 L42.4835742,17.5747305 L40.1656445,17.5747305 L38.77125,13.6853555 Z" id="Fill-38"></path>
                                <polyline id="Fill-39" points="44.3909375 4.35525781 46.9251563 4.35525781 53.072168 14.9821328 53.1114063 14.9821328 53.1114063 4.35525781 54.389043 4.35525781 54.389043 17.5747305 52.1495898 17.5747305 45.7068555 6.45689844 45.6676172 6.45689844 45.6676172 17.5747305 44.3909375 17.5747305"></polyline>
                                <path d="M67.3349004,16.96625 C66.2343145,17.3193945 64.6437285,17.8103516 62.8177129,17.8103516 C58.869002,17.8103516 57.1205059,14.88375 57.1205059,11.0336133 C57.1205059,6.87052734 58.9666191,4.12001953 63.3670488,4.12001953 C64.8399199,4.12001953 66.2544121,4.37554688 66.7654668,4.63107422 L66.7654668,6.45708984 L66.7061309,6.45708984 C65.7041191,5.51441406 64.4475371,5.12203125 63.2100957,5.12203125 C60.0471074,5.12203125 59.4776738,8.24482422 59.4776738,10.7398047 C59.4776738,14.1573633 60.401209,16.7891992 63.2885723,16.7891992 C64.0742949,16.7891992 64.6044902,16.6714844 65.1356426,16.4551953 L65.1356426,11.27 L67.3349004,11.27" id="Fill-40"></path>
                                <polyline id="Fill-41" points="70.4204648 4.35525781 72.9546836 4.35525781 79.1026523 14.9821328 79.1418906 14.9821328 79.1418906 4.35525781 80.4185703 4.35525781 80.4185703 17.5747305 78.1791172 17.5747305 71.7363828 6.45689844 71.6971445 6.45689844 71.6971445 17.5747305 70.4204648 17.5747305"></polyline>
                                <path d="M88.9452402,1.86123438 C88.9452402,1.19322656 89.4553379,0.721410156 90.0850645,0.721410156 C90.7329746,0.721410156 91.203834,1.19322656 91.203834,1.86123438 C91.203834,2.50914453 90.7329746,3.00010156 90.0850645,3.00010156 C89.4371543,3.00010156 88.9452402,2.50914453 88.9452402,1.86123438 Z M85.4291074,12.6058242 L89.613248,12.6058242 L87.530748,6.811 L87.4915098,6.811 L85.4291074,12.6058242 Z M84.741002,1.86123438 C84.741002,1.19322656 85.232916,0.721410156 85.8607285,0.721410156 C86.5095957,0.721410156 87.0005527,1.19322656 87.0005527,1.86123438 C87.0005527,2.50914453 86.5095957,3.00010156 85.8607285,3.00010156 C85.2128184,3.00010156 84.741002,2.50914453 84.741002,1.86123438 Z M90.0056309,13.6853555 L85.0568223,13.6853555 L83.6815684,17.5747305 L82.3063145,17.5747305 L87.1374082,4.35525781 L88.9260996,4.35525781 L93.7179551,17.5747305 L91.4000254,17.5747305 L90.0056309,13.6853555 Z" id="Fill-42"></path>
                                <path d="M102.381959,6.39871094 L102.322623,6.39871094 C101.793385,5.90775391 100.711939,5.14117188 99.2974473,5.14117188 C97.7853379,5.14117188 97.0771348,5.82927734 97.0771348,7.06671875 C97.0771348,9.99332031 103.185865,9.71865234 103.185865,14.0004102 C103.185865,16.7308203 101.203854,17.8103516 98.4724863,17.8103516 C96.8426621,17.8103516 95.3889316,17.4371094 94.9774082,17.1433008 L94.9774082,15.2962305 L95.0348301,15.2962305 C95.644459,15.8465234 96.8627598,16.7499609 98.6686777,16.7499609 C99.9070762,16.7499609 101.066041,16.3173828 101.066041,14.609082 C101.066041,11.3877148 94.9955918,11.6824805 94.9955918,7.53853516 C94.9955918,5.39669922 96.5077012,4.12001953 99.4544004,4.12001953 C100.633463,4.12001953 101.870904,4.33630859 102.381959,4.63107422" id="Fill-43"></path>
                                <polyline id="Fill-44" points="112.008354 4.35525781 114.208568 4.35525781 114.208568 10.6802773 114.248764 10.6802773 119.316244 4.35525781 121.004447 4.35525781 116.232689 10.1108437 121.516459 17.5747305 118.844428 17.5747305 114.248764 10.915707 114.208568 10.915707 114.208568 17.5747305 112.008354 17.5747305"></polyline>
                                <path d="M127.991924,16.7891992 C130.367275,16.7891992 131.350146,14.3726953 131.350146,11.1915234 C131.350146,7.83234375 130.350049,5.12107422 127.932588,5.12107422 C125.005986,5.12107422 124.592549,8.75492188 124.592549,11.0336133 C124.592549,14.2942188 125.633799,16.7891992 127.991924,16.7891992 M127.971826,4.12001953 C131.98083,4.12001953 133.708271,7.18443359 133.708271,10.9551367 C133.708271,14.7267969 131.98083,17.8103516 127.971826,17.8103516 C123.965693,17.8103516 122.235381,14.7267969 122.235381,10.9551367 C122.235381,7.18443359 123.965693,4.12001953 127.971826,4.12001953" id="Fill-45"></path>
                                <polyline id="Fill-46" points="136.425762 4.35525781 139.392559 4.35525781 143.084785 15.1189883 143.124023 15.1189883 146.73873 4.35525781 149.605996 4.35525781 149.605996 17.5747305 147.504355 17.5747305 147.504355 5.82812891 147.465117 5.82812891 143.43793 17.5747305 141.749727 17.5747305 137.74168 5.94680078 137.702441 5.94680078 137.702441 17.5747305 136.425762 17.5747305"></polyline>
                                <polyline id="Fill-47" points="153.165387 4.35525781 156.13027 4.35525781 159.823453 15.1189883 159.863648 15.1189883 163.475484 4.35525781 166.344664 4.35525781 166.344664 17.5747305 164.243023 17.5747305 164.243023 5.82812891 164.203785 5.82812891 160.177555 17.5747305 158.488395 17.5747305 154.481305 5.94680078 154.442066 5.94680078 154.442066 17.5747305 153.165387 17.5747305"></polyline>
                                <path d="M179.184674,12.3502969 C179.184674,15.1199453 178.851627,17.8111172 174.58901,17.8111172 C170.97526,17.8111172 169.756959,16.1611953 169.756959,12.6249648 L169.756959,4.35525781 L171.956217,4.35525781 L171.956217,12.016293 C171.956217,14.4327969 172.055748,16.7698672 174.902916,16.7698672 C177.614186,16.7698672 177.791236,14.6289883 177.791236,12.3703945 L177.791236,4.35525781 L179.184674,4.35525781" id="Fill-48"></path>
                                <polyline id="Fill-49" points="182.479158 4.35525781 185.011463 4.35525781 191.160389 14.9821328 191.200584 14.9821328 191.200584 4.35525781 192.477264 4.35525781 192.477264 17.5747305 190.236854 17.5747305 183.795076 6.45689844 183.755838 6.45689844 183.755838 17.5747305 182.479158 17.5747305"></polyline>
                            </g>
                        </g>
                    </g>
                </g>
            </g>
        </g>
    </g>
</svg>